# xmcd
#
# Track frame offsets:
#	150
#	19122
#	36729
#	52525
#	67931
#	82640
#	96123
#	113005
#	130333
#	141838
#	157662
#	176188
#
# Disc length: 2496 seconds
#
# Revision: 1
# Processed by: cddbd v1.5.1PL0 Copyright (c) Steve Scherf et al.
# Submitted via: audiograbber 1.83.01
#
DISCID=8e09be0c
DTITLE=Vera Martinova - Slunci je to jedno
DYEAR=1900
DGENRE=Country
TTITLE0=Yamba Damba
TTITLE1=Az
TTITLE2=Byls frajer
TTITLE3=Zkus mi rict
TTITLE4=Jen tak koukam
TTITLE5=Noc
TTITLE6=Ma pychu kralu
TTITLE7=Nebe nad Kartagem
TTITLE8=Lasky pul
TTITLE9=Hvezda v tisni
TTITLE10=Vim,ze pujdu i ja
TTITLE11=Slunci je to jedno
EXTD=
EXTT0=
EXTT1=
EXTT2=
EXTT3=
EXTT4=
EXTT5=
EXTT6=
EXTT7=
EXTT8=
EXTT9=
EXTT10=
EXTT11=
PLAYORDER=
